<svg xmlns="http://www.w3.org/2000/svg" width="600" height="200" viewBox="0 0 600 200">
  <rect width="600" height="200" fill="#C8D96F"/>
  <!-- Layer 1: Large blobs -->
  <path d="M0,70 Q35,30 85,55 Q135,75 170,35 Q210,0 260,35 Q295,60 330,25 Q370,0 420,50 Q460,80 510,40 Q550,15 600,55 L600,115 Q565,85 525,105 Q485,130 445,90 Q405,60 365,100 Q325,140 285,100 Q245,70 205,110 Q165,140 125,90 Q85,50 45,90 Q15,120 0,90 Z" fill="#3A8C3F" opacity="0.9"/>
  <path d="M0,135 Q55,95 115,125 Q165,155 215,115 Q265,80 315,125 Q365,165 415,125 Q455,95 505,135 Q545,165 585,125 Q600,115 600,165 L600,200 L0,200 Z" fill="#2D6E2E" opacity="0.85"/>
  <!-- Layer 2: Medium blobs - bright yellow -->
  <path d="M45,15 Q75,45 115,25 Q155,5 185,35 Q205,55 175,75 Q145,95 105,65 Q75,45 45,75 Q25,95 5,55 Q0,25 45,15 Z" fill="#F5E642" opacity="0.8"/>
  <path d="M285,55 Q325,25 365,55 Q395,85 365,105 Q335,125 305,95 Q275,75 285,55 Z" fill="#F5E642" opacity="0.7"/>
  <path d="M485,15 Q525,45 555,25 Q585,5 600,45 L600,75 Q580,55 555,75 Q525,95 495,65 Q465,35 485,15 Z" fill="#F5E642" opacity="0.75"/>
  <!-- Layer 3: Dark green accents -->
  <path d="M135,75 Q165,55 195,75 Q225,95 195,115 Q165,135 135,105 Q115,85 135,75 Z" fill="#1B5E20" opacity="0.8"/>
  <path d="M405,35 Q435,15 465,35 Q495,55 465,75 Q435,95 405,65 Q385,45 405,35 Z" fill="#1B5E20" opacity="0.7"/>
  <path d="M0,0 Q25,18 55,8 Q75,28 55,45 Q35,28 18,38 Q0,48 0,28 Z" fill="#1B5E20" opacity="0.6"/>
  <!-- Layer 4: Light yellow-green highlights -->
  <path d="M235,135 Q255,115 275,135 Q295,155 275,165 Q245,175 235,155 Z" fill="#CDDC39" opacity="0.6"/>
  <path d="M515,95 Q535,75 555,95 Q575,115 555,135 Q535,125 515,115 Z" fill="#E8F028" opacity="0.6"/>
  <path d="M65,145 Q85,125 105,145 Q115,165 95,175 Q75,170 65,155 Z" fill="#FFD600" opacity="0.65"/>
  <path d="M385,145 Q415,125 445,155 Q455,175 425,185 Q395,175 385,155 Z" fill="#4CAF50" opacity="0.7"/>
</svg>
