<svg xmlns="http://www.w3.org/2000/svg" width="600" height="200" viewBox="0 0 600 200">
  <rect width="600" height="200" fill="#B5D8F0"/>
  <!-- Layer 1: Large blobs -->
  <path d="M0,60 Q40,20 90,50 Q140,80 180,30 Q220,0 270,40 Q310,70 350,30 Q390,0 440,50 Q480,80 520,40 Q560,10 600,50 L600,110 Q570,80 530,100 Q490,130 450,90 Q410,60 370,100 Q330,140 290,100 Q250,70 210,110 Q170,140 130,90 Q90,50 50,90 Q20,120 0,90 Z" fill="#4A90B8" opacity="0.9"/>
  <path d="M0,130 Q60,90 120,120 Q170,150 220,110 Q270,80 320,120 Q370,160 420,120 Q460,90 510,130 Q550,160 590,120 Q600,110 600,170 L600,200 L0,200 Z" fill="#2E5A7C" opacity="0.85"/>
  <!-- Layer 2: Medium blobs -->
  <path d="M40,10 Q70,40 110,20 Q150,0 180,30 Q200,50 170,70 Q140,90 100,60 Q70,40 40,70 Q20,90 0,50 Q0,20 40,10 Z" fill="#E0F0FF" opacity="0.7"/>
  <path d="M280,50 Q320,20 360,50 Q390,80 360,100 Q330,120 300,90 Q270,70 280,50 Z" fill="#E0F0FF" opacity="0.6"/>
  <path d="M480,10 Q520,40 550,20 Q580,0 600,40 L600,70 Q580,50 550,70 Q520,90 490,60 Q460,30 480,10 Z" fill="#E0F0FF" opacity="0.65"/>
  <!-- Layer 3: Dark accents -->
  <path d="M130,70 Q160,50 190,70 Q220,90 190,110 Q160,130 130,100 Q110,80 130,70 Z" fill="#1A3A5C" opacity="0.8"/>
  <path d="M400,30 Q430,10 460,30 Q490,50 460,70 Q430,90 400,60 Q380,40 400,30 Z" fill="#1A3A5C" opacity="0.7"/>
  <path d="M0,0 Q20,15 50,5 Q70,25 50,40 Q30,25 15,35 Q0,45 0,25 Z" fill="#1A3A5C" opacity="0.6"/>
  <!-- Layer 4: Small highlight shapes -->
  <path d="M230,130 Q250,110 270,130 Q290,150 270,160 Q240,170 230,150 Z" fill="#7CB9E8" opacity="0.5"/>
  <path d="M510,90 Q530,70 550,90 Q570,110 550,130 Q530,120 510,110 Z" fill="#7CB9E8" opacity="0.5"/>
  <path d="M60,140 Q80,120 100,140 Q110,160 90,170 Q70,165 60,150 Z" fill="#4A90B8" opacity="0.6"/>
  <path d="M380,140 Q410,120 440,150 Q450,170 420,180 Q390,170 380,150 Z" fill="#2E5A7C" opacity="0.7"/>
</svg>
