<svg xmlns="http://www.w3.org/2000/svg" width="600" height="200" viewBox="0 0 600 200">
  <rect width="600" height="200" fill="#FFB6D5"/>
  <!-- Layer 1: Large blobs -->
  <path d="M0,80 Q30,40 80,60 Q130,80 160,40 Q200,0 250,30 Q280,50 300,20 Q340,60 380,50 Q420,30 460,60 Q500,90 540,50 Q570,30 600,60 L600,120 Q560,90 520,110 Q480,140 440,100 Q400,80 360,120 Q320,150 280,110 Q240,80 200,120 Q160,150 120,100 Q80,60 40,100 Q10,130 0,100 Z" fill="#E8458B" opacity="0.9"/>
  <path d="M0,140 Q50,100 100,130 Q150,160 200,120 Q250,90 300,130 Q350,170 400,130 Q440,100 480,140 Q530,170 580,130 Q600,110 600,160 L600,200 L0,200 Z" fill="#C75D7E" opacity="0.85"/>
  <!-- Layer 2: Medium blobs -->
  <path d="M50,20 Q80,50 120,30 Q160,10 190,40 Q210,60 180,80 Q150,100 110,70 Q80,50 50,80 Q30,100 10,60 Q0,30 50,20 Z" fill="#FFE4EC" opacity="0.7"/>
  <path d="M300,60 Q340,30 380,60 Q410,90 380,110 Q350,130 320,100 Q290,80 300,60 Z" fill="#FFE4EC" opacity="0.6"/>
  <path d="M500,20 Q540,50 570,30 Q600,10 600,50 L600,80 Q580,60 550,80 Q520,100 490,70 Q470,40 500,20 Z" fill="#FFE4EC" opacity="0.65"/>
  <!-- Layer 3: Dark accents -->
  <path d="M150,80 Q180,60 210,80 Q240,100 210,120 Q180,140 150,110 Q130,90 150,80 Z" fill="#8B2942" opacity="0.8"/>
  <path d="M420,40 Q450,20 480,40 Q510,60 480,80 Q450,100 420,70 Q400,50 420,40 Z" fill="#8B2942" opacity="0.7"/>
  <path d="M0,0 Q30,20 60,10 Q80,30 60,50 Q40,30 20,40 Q0,50 0,30 Z" fill="#8B2942" opacity="0.6"/>
  <!-- Layer 4: Small highlight shapes -->
  <path d="M250,140 Q270,120 290,140 Q310,160 290,170 Q260,180 250,160 Z" fill="#FF69B4" opacity="0.5"/>
  <path d="M530,100 Q550,80 570,100 Q590,120 570,140 Q550,130 530,120 Z" fill="#FF69B4" opacity="0.5"/>
  <path d="M80,150 Q100,130 120,150 Q130,170 110,180 Q90,175 80,160 Z" fill="#E8458B" opacity="0.6"/>
  <path d="M400,150 Q430,130 460,160 Q470,180 440,190 Q410,180 400,160 Z" fill="#C75D7E" opacity="0.7"/>
</svg>
